<svg id="visual" viewBox="0 0 1800 500" width="1800" height="500" xmlns="http://www.w3.org/2000/svg" xmlns:xlink="http://www.w3.org/1999/xlink" version="1.1"><g stroke-width="1" stroke-linejoin="bevel"><path d="M900 250L810 333.3L900 333.3Z" fill="#08080f" stroke="#12121b"></path><path d="M900 250L810 250L810 333.3Z" fill="#08080f" stroke="#12121b"></path><path d="M810 333.3L900 416.7L900 333.3Z" fill="#08080f" stroke="#12121b"></path><path d="M810 333.3L810 416.7L900 416.7Z" fill="#08080f" stroke="#12121b"></path><path d="M900 250L900 166.7L810 250Z" fill="#08080f" stroke="#12121b"></path><path d="M900 166.7L810 166.7L810 250Z" fill="#08080f" stroke="#12121b"></path><path d="M900 416.7L990 333.3L900 333.3Z" fill="#08080f" stroke="#12121b"></path><path d="M900 333.3L990 333.3L900 250Z" fill="#08080f" stroke="#12121b"></path><path d="M900 250L990 250L900 166.7Z" fill="#08080f" stroke="#12121b"></path><path d="M720 250L720 333.3L810 250Z" fill="#08080f" stroke="#12121b"></path><path d="M810 250L720 333.3L810 333.3Z" fill="#08080f" stroke="#12121b"></path><path d="M810 333.3L720 333.3L810 416.7Z" fill="#08080f" stroke="#12121b"></path><path d="M990 333.3L990 250L900 250Z" fill="#08080f" stroke="#12121b"></path><path d="M810 166.7L720 250L810 250Z" fill="#08080f" stroke="#12121b"></path><path d="M900 416.7L990 416.7L990 333.3Z" fill="#08080f" stroke="#12121b"></path><path d="M720 333.3L720 416.7L810 416.7Z" fill="#08080f" stroke="#12121b"></path><path d="M990 250L990 166.7L900 166.7Z" fill="#08080f" stroke="#12121b"></path><path d="M810 166.7L720 166.7L720 250Z" fill="#08080f" stroke="#12121b"></path><path d="M720 416.7L810 500L810 416.7Z" fill="#08080f" stroke="#12121b"></path><path d="M810 416.7L810 500L900 416.7Z" fill="#08080f" stroke="#12121b"></path><path d="M900 416.7L900 500L990 416.7Z" fill="#08080f" stroke="#12121b"></path><path d="M810 500L900 500L900 416.7Z" fill="#08080f" stroke="#12121b"></path><path d="M900 166.7L810 83.3L810 166.7Z" fill="#08080f" stroke="#12121b"></path><path d="M810 166.7L810 83.3L720 166.7Z" fill="#08080f" stroke="#12121b"></path><path d="M900 83.3L810 83.3L900 166.7Z" fill="#08080f" stroke="#12121b"></path><path d="M990 166.7L900 83.3L900 166.7Z" fill="#08080f" stroke="#12121b"></path><path d="M990 416.7L1080 333.3L990 333.3Z" fill="#08080f" stroke="#12121b"></path><path d="M990 333.3L1080 333.3L990 250Z" fill="#08080f" stroke="#12121b"></path><path d="M990 250L1080 250L990 166.7Z" fill="#08080f" stroke="#12121b"></path><path d="M1080 416.7L1080 333.3L990 416.7Z" fill="#08080f" stroke="#12121b"></path><path d="M720 250L630 333.3L720 333.3Z" fill="#08080f" stroke="#12121b"></path><path d="M720 333.3L630 333.3L720 416.7Z" fill="#08080f" stroke="#12121b"></path><path d="M720 416.7L720 500L810 500Z" fill="#08080f" stroke="#12121b"></path><path d="M630 250L630 333.3L720 250Z" fill="#08080f" stroke="#12121b"></path><path d="M1080 333.3L1080 250L990 250Z" fill="#08080f" stroke="#12121b"></path><path d="M720 166.7L630 250L720 250Z" fill="#08080f" stroke="#12121b"></path><path d="M630 416.7L720 500L720 416.7Z" fill="#08080f" stroke="#12121b"></path><path d="M900 500L990 500L990 416.7Z" fill="#08080f" stroke="#12121b"></path><path d="M810 83.3L720 83.3L720 166.7Z" fill="#08080f" stroke="#12121b"></path><path d="M720 166.7L630 166.7L630 250Z" fill="#08080f" stroke="#12121b"></path><path d="M1080 166.7L990 83.3L990 166.7Z" fill="#08080f" stroke="#12121b"></path><path d="M990 166.7L990 83.3L900 83.3Z" fill="#08080f" stroke="#12121b"></path><path d="M990 500L1080 416.7L990 416.7Z" fill="#08080f" stroke="#12121b"></path><path d="M630 333.3L630 416.7L720 416.7Z" fill="#08080f" stroke="#12121b"></path><path d="M720 83.3L630 166.7L720 166.7Z" fill="#08080f" stroke="#12121b"></path><path d="M1080 250L1080 166.7L990 166.7Z" fill="#08080f" stroke="#12121b"></path><path d="M990 83.3L900 0L900 83.3Z" fill="#08080f" stroke="#12121b"></path><path d="M900 83.3L900 0L810 83.3Z" fill="#08080f" stroke="#12121b"></path><path d="M810 83.3L810 0L720 83.3Z" fill="#08080f" stroke="#12121b"></path><path d="M900 0L810 0L810 83.3Z" fill="#08080f" stroke="#12121b"></path><path d="M630 416.7L630 500L720 500Z" fill="#08080f" stroke="#12121b"></path><path d="M990 500L1080 500L1080 416.7Z" fill="#08080f" stroke="#12121b"></path><path d="M720 0L630 83.3L720 83.3Z" fill="#08080f" stroke="#12121b"></path><path d="M720 83.3L630 83.3L630 166.7Z" fill="#08080f" stroke="#12121b"></path><path d="M1080 166.7L1080 83.3L990 83.3Z" fill="#08080f" stroke="#12121b"></path><path d="M990 83.3L990 0L900 0Z" fill="#08080f" stroke="#12121b"></path><path d="M1170 416.7L1170 333.3L1080 416.7Z" fill="#08080f" stroke="#12121b"></path><path d="M1080 416.7L1170 333.3L1080 333.3Z" fill="#08080f" stroke="#12121b"></path><path d="M1080 333.3L1170 333.3L1080 250Z" fill="#08080f" stroke="#12121b"></path><path d="M1080 250L1170 250L1080 166.7Z" fill="#08080f" stroke="#12121b"></path><path d="M1080 166.7L1170 166.7L1080 83.3Z" fill="#08080f" stroke="#12121b"></path><path d="M630 166.7L540 250L630 250Z" fill="#08080f" stroke="#12121b"></path><path d="M630 250L540 250L630 333.3Z" fill="#08080f" stroke="#12121b"></path><path d="M630 333.3L540 333.3L630 416.7Z" fill="#08080f" stroke="#12121b"></path><path d="M630 416.7L540 416.7L630 500Z" fill="#08080f" stroke="#12121b"></path><path d="M540 166.7L540 250L630 166.7Z" fill="#08080f" stroke="#12121b"></path><path d="M1170 333.3L1170 250L1080 250Z" fill="#08080f" stroke="#12121b"></path><path d="M540 250L540 333.3L630 333.3Z" fill="#08080f" stroke="#12121b"></path><path d="M1080 83.3L990 0L990 83.3Z" fill="#08080f" stroke="#12121b"></path><path d="M810 0L720 0L720 83.3Z" fill="#08080f" stroke="#12121b"></path><path d="M1080 500L1170 416.7L1080 416.7Z" fill="#08080f" stroke="#12121b"></path><path d="M540 333.3L540 416.7L630 416.7Z" fill="#08080f" stroke="#12121b"></path><path d="M630 83.3L540 166.7L630 166.7Z" fill="#08080f" stroke="#12121b"></path><path d="M1170 250L1170 166.7L1080 166.7Z" fill="#08080f" stroke="#12121b"></path><path d="M720 0L630 0L630 83.3Z" fill="#08080f" stroke="#12121b"></path><path d="M630 83.3L540 83.3L540 166.7Z" fill="#08080f" stroke="#12121b"></path><path d="M1170 83.3L1080 0L1080 83.3Z" fill="#08080f" stroke="#12121b"></path><path d="M1080 83.3L1080 0L990 0Z" fill="#08080f" stroke="#12121b"></path><path d="M1080 500L1170 500L1170 416.7Z" fill="#08080f" stroke="#12121b"></path><path d="M540 416.7L540 500L630 500Z" fill="#08080f" stroke="#12121b"></path><path d="M630 0L540 83.3L630 83.3Z" fill="#08080f" stroke="#12121b"></path><path d="M1170 166.7L1170 83.3L1080 83.3Z" fill="#08080f" stroke="#12121b"></path><path d="M540 333.3L450 333.3L540 416.7Z" fill="#08080f" stroke="#12121b"></path><path d="M540 416.7L450 416.7L540 500Z" fill="#08080f" stroke="#12121b"></path><path d="M540 250L450 333.3L540 333.3Z" fill="#08080f" stroke="#12121b"></path><path d="M450 250L450 333.3L540 250Z" fill="#08080f" stroke="#12121b"></path><path d="M450 250L540 250L540 166.7Z" fill="#08080f" stroke="#12121b"></path><path d="M1170 333.3L1260 333.3L1170 250Z" fill="#08080f" stroke="#12121b"></path><path d="M1170 250L1260 250L1170 166.7Z" fill="#08080f" stroke="#12121b"></path><path d="M1170 166.7L1260 166.7L1170 83.3Z" fill="#08080f" stroke="#12121b"></path><path d="M1170 416.7L1260 333.3L1170 333.3Z" fill="#08080f" stroke="#12121b"></path><path d="M1260 416.7L1260 333.3L1170 416.7Z" fill="#08080f" stroke="#12121b"></path><path d="M1260 333.3L1260 250L1170 250Z" fill="#08080f" stroke="#12121b"></path><path d="M450 166.7L450 250L540 166.7Z" fill="#08080f" stroke="#12121b"></path><path d="M1260 250L1260 166.7L1170 166.7Z" fill="#08080f" stroke="#12121b"></path><path d="M540 83.3L450 166.7L540 166.7Z" fill="#08080f" stroke="#12121b"></path><path d="M1170 500L1260 416.7L1170 416.7Z" fill="#08080f" stroke="#12121b"></path><path d="M450 333.3L450 416.7L540 416.7Z" fill="#08080f" stroke="#12121b"></path><path d="M1170 83.3L1170 0L1080 0Z" fill="#08080f" stroke="#12121b"></path><path d="M1260 83.3L1170 0L1170 83.3Z" fill="#08080f" stroke="#12121b"></path><path d="M630 0L540 0L540 83.3Z" fill="#08080f" stroke="#12121b"></path><path d="M540 83.3L450 83.3L450 166.7Z" fill="#08080f" stroke="#12121b"></path><path d="M1170 500L1260 500L1260 416.7Z" fill="#08080f" stroke="#12121b"></path><path d="M450 416.7L450 500L540 500Z" fill="#08080f" stroke="#12121b"></path><path d="M540 0L450 83.3L540 83.3Z" fill="#08080f" stroke="#12121b"></path><path d="M1260 166.7L1260 83.3L1170 83.3Z" fill="#08080f" stroke="#12121b"></path><path d="M1260 333.3L1350 333.3L1260 250Z" fill="#08080f" stroke="#12121b"></path><path d="M1260 250L1350 250L1260 166.7Z" fill="#08080f" stroke="#12121b"></path><path d="M1260 166.7L1350 166.7L1260 83.3Z" fill="#08080f" stroke="#12121b"></path><path d="M1260 416.7L1350 333.3L1260 333.3Z" fill="#08080f" stroke="#12121b"></path><path d="M1350 416.7L1350 333.3L1260 416.7Z" fill="#08080f" stroke="#12121b"></path><path d="M450 333.3L360 333.3L450 416.7Z" fill="#08080f" stroke="#12121b"></path><path d="M450 416.7L360 416.7L450 500Z" fill="#08080f" stroke="#12121b"></path><path d="M450 250L360 333.3L450 333.3Z" fill="#08080f" stroke="#12121b"></path><path d="M360 250L360 333.3L450 250Z" fill="#08080f" stroke="#12121b"></path><path d="M360 250L450 250L450 166.7Z" fill="#08080f" stroke="#12121b"></path><path d="M360 166.7L360 250L450 166.7Z" fill="#08080f" stroke="#12121b"></path><path d="M1350 333.3L1350 250L1260 250Z" fill="#08080f" stroke="#12121b"></path><path d="M540 0L450 0L450 83.3Z" fill="#08080f" stroke="#12121b"></path><path d="M450 83.3L360 166.7L450 166.7Z" fill="#08080f" stroke="#12121b"></path><path d="M1350 83.3L1260 0L1260 83.3Z" fill="#08080f" stroke="#12121b"></path><path d="M1260 83.3L1260 0L1170 0Z" fill="#08080f" stroke="#12121b"></path><path d="M360 83.3L360 166.7L450 83.3Z" fill="#08080f" stroke="#12121b"></path><path d="M1260 500L1350 416.7L1260 416.7Z" fill="#08080f" stroke="#12121b"></path><path d="M360 333.3L360 416.7L450 416.7Z" fill="#08080f" stroke="#12121b"></path><path d="M1350 250L1350 166.7L1260 166.7Z" fill="#08080f" stroke="#12121b"></path><path d="M1260 500L1350 500L1350 416.7Z" fill="#08080f" stroke="#12121b"></path><path d="M360 416.7L360 500L450 500Z" fill="#08080f" stroke="#12121b"></path><path d="M1350 166.7L1350 83.3L1260 83.3Z" fill="#08080f" stroke="#12121b"></path><path d="M450 0L360 83.3L450 83.3Z" fill="#08080f" stroke="#12121b"></path><path d="M1350 83.3L1350 0L1260 0Z" fill="#08080f" stroke="#12121b"></path><path d="M450 0L360 0L360 83.3Z" fill="#08080f" stroke="#12121b"></path><path d="M360 333.3L270 333.3L360 416.7Z" fill="#08080f" stroke="#12121b"></path><path d="M360 416.7L270 416.7L360 500Z" fill="#08080f" stroke="#12121b"></path><path d="M360 250L270 333.3L360 333.3Z" fill="#08080f" stroke="#12121b"></path><path d="M270 250L270 333.3L360 250Z" fill="#08080f" stroke="#12121b"></path><path d="M270 250L360 250L360 166.7Z" fill="#08080f" stroke="#12121b"></path><path d="M270 250L360 166.7L270 166.7Z" fill="#08080f" stroke="#12121b"></path><path d="M1350 333.3L1440 333.3L1350 250Z" fill="#08080f" stroke="#12121b"></path><path d="M1350 250L1440 250L1350 166.7Z" fill="#08080f" stroke="#12121b"></path><path d="M1350 166.7L1440 166.7L1350 83.3Z" fill="#08080f" stroke="#12121b"></path><path d="M1350 83.3L1440 83.3L1350 0Z" fill="#08080f" stroke="#12121b"></path><path d="M1350 416.7L1440 333.3L1350 333.3Z" fill="#08080f" stroke="#12121b"></path><path d="M1440 416.7L1440 333.3L1350 416.7Z" fill="#08080f" stroke="#12121b"></path><path d="M270 166.7L360 166.7L360 83.3Z" fill="#08080f" stroke="#12121b"></path><path d="M1440 333.3L1440 250L1350 250Z" fill="#08080f" stroke="#12121b"></path><path d="M270 333.3L270 416.7L360 416.7Z" fill="#08080f" stroke="#12121b"></path><path d="M1440 250L1440 166.7L1350 166.7Z" fill="#08080f" stroke="#12121b"></path><path d="M1350 500L1440 416.7L1350 416.7Z" fill="#08080f" stroke="#12121b"></path><path d="M270 83.3L270 166.7L360 83.3Z" fill="#08080f" stroke="#12121b"></path><path d="M270 416.7L270 500L360 500Z" fill="#08080f" stroke="#12121b"></path><path d="M1350 500L1440 500L1440 416.7Z" fill="#08080f" stroke="#12121b"></path><path d="M1440 166.7L1440 83.3L1350 83.3Z" fill="#08080f" stroke="#12121b"></path><path d="M360 0L270 83.3L360 83.3Z" fill="#08080f" stroke="#12121b"></path><path d="M1440 83.3L1440 0L1350 0Z" fill="#08080f" stroke="#12121b"></path><path d="M360 0L270 0L270 83.3Z" fill="#08080f" stroke="#12121b"></path><path d="M270 333.3L180 333.3L270 416.7Z" fill="#08080f" stroke="#12121b"></path><path d="M270 416.7L180 416.7L270 500Z" fill="#08080f" stroke="#12121b"></path><path d="M270 250L180 333.3L270 333.3Z" fill="#08080f" stroke="#12121b"></path><path d="M180 250L180 333.3L270 250Z" fill="#08080f" stroke="#12121b"></path><path d="M180 250L270 250L270 166.7Z" fill="#08080f" stroke="#12121b"></path><path d="M180 250L270 166.7L180 166.7Z" fill="#08080f" stroke="#12121b"></path><path d="M180 166.7L270 166.7L270 83.3Z" fill="#08080f" stroke="#12121b"></path><path d="M1440 333.3L1530 333.3L1440 250Z" fill="#08080f" stroke="#12121b"></path><path d="M1440 250L1530 250L1440 166.7Z" fill="#08080f" stroke="#12121b"></path><path d="M1440 166.7L1530 166.7L1440 83.3Z" fill="#08080f" stroke="#12121b"></path><path d="M1440 83.3L1530 83.3L1440 0Z" fill="#08080f" stroke="#12121b"></path><path d="M1440 416.7L1530 333.3L1440 333.3Z" fill="#08080f" stroke="#12121b"></path><path d="M1530 416.7L1530 333.3L1440 416.7Z" fill="#08080f" stroke="#12121b"></path><path d="M1530 333.3L1530 250L1440 250Z" fill="#08080f" stroke="#12121b"></path><path d="M180 333.3L180 416.7L270 416.7Z" fill="#08080f" stroke="#12121b"></path><path d="M180 83.3L180 166.7L270 83.3Z" fill="#08080f" stroke="#12121b"></path><path d="M1440 500L1530 416.7L1440 416.7Z" fill="#08080f" stroke="#12121b"></path><path d="M1530 250L1530 166.7L1440 166.7Z" fill="#08080f" stroke="#12121b"></path><path d="M1440 500L1530 500L1530 416.7Z" fill="#08080f" stroke="#12121b"></path><path d="M180 416.7L180 500L270 500Z" fill="#08080f" stroke="#12121b"></path><path d="M270 0L180 83.3L270 83.3Z" fill="#08080f" stroke="#12121b"></path><path d="M1530 166.7L1530 83.3L1440 83.3Z" fill="#08080f" stroke="#12121b"></path><path d="M1530 83.3L1530 0L1440 0Z" fill="#08080f" stroke="#12121b"></path><path d="M270 0L180 0L180 83.3Z" fill="#08080f" stroke="#12121b"></path><path d="M1530 333.3L1620 333.3L1530 250Z" fill="#08080f" stroke="#12121b"></path><path d="M1530 250L1620 250L1530 166.7Z" fill="#08080f" stroke="#12121b"></path><path d="M1530 166.7L1620 166.7L1530 83.3Z" fill="#08080f" stroke="#12121b"></path><path d="M1530 83.3L1620 83.3L1530 0Z" fill="#08080f" stroke="#12121b"></path><path d="M1530 416.7L1620 333.3L1530 333.3Z" fill="#08080f" stroke="#12121b"></path><path d="M1620 416.7L1620 333.3L1530 416.7Z" fill="#08080f" stroke="#12121b"></path><path d="M1620 333.3L1620 250L1530 250Z" fill="#08080f" stroke="#12121b"></path><path d="M90 166.7L180 166.7L180 83.3Z" fill="#08080f" stroke="#12121b"></path><path d="M90 166.7L90 250L180 166.7Z" fill="#08080f" stroke="#12121b"></path><path d="M180 166.7L90 250L180 250Z" fill="#08080f" stroke="#12121b"></path><path d="M180 250L90 250L180 333.3Z" fill="#08080f" stroke="#12121b"></path><path d="M180 333.3L90 333.3L180 416.7Z" fill="#08080f" stroke="#12121b"></path><path d="M180 416.7L90 416.7L180 500Z" fill="#08080f" stroke="#12121b"></path><path d="M90 250L90 333.3L180 333.3Z" fill="#08080f" stroke="#12121b"></path><path d="M1530 500L1620 416.7L1530 416.7Z" fill="#08080f" stroke="#12121b"></path><path d="M90 83.3L90 166.7L180 83.3Z" fill="#08080f" stroke="#12121b"></path><path d="M1620 250L1620 166.7L1530 166.7Z" fill="#08080f" stroke="#12121b"></path><path d="M90 333.3L90 416.7L180 416.7Z" fill="#08080f" stroke="#12121b"></path><path d="M180 0L90 83.3L180 83.3Z" fill="#08080f" stroke="#12121b"></path><path d="M1530 500L1620 500L1620 416.7Z" fill="#08080f" stroke="#12121b"></path><path d="M1620 166.7L1620 83.3L1530 83.3Z" fill="#08080f" stroke="#12121b"></path><path d="M90 416.7L90 500L180 500Z" fill="#08080f" stroke="#12121b"></path><path d="M180 0L90 0L90 83.3Z" fill="#08080f" stroke="#12121b"></path><path d="M1620 83.3L1620 0L1530 0Z" fill="#08080f" stroke="#12121b"></path><path d="M1620 250L1710 250L1620 166.7Z" fill="#08080f" stroke="#12121b"></path><path d="M1620 166.7L1710 166.7L1620 83.3Z" fill="#08080f" stroke="#12121b"></path><path d="M1620 83.3L1710 83.3L1620 0Z" fill="#08080f" stroke="#12121b"></path><path d="M1620 333.3L1710 333.3L1620 250Z" fill="#08080f" stroke="#12121b"></path><path d="M1620 416.7L1710 333.3L1620 333.3Z" fill="#08080f" stroke="#12121b"></path><path d="M1710 416.7L1710 333.3L1620 416.7Z" fill="#08080f" stroke="#12121b"></path><path d="M90 333.3L0 333.3L90 416.7Z" fill="#08080f" stroke="#12121b"></path><path d="M90 416.7L0 416.7L90 500Z" fill="#08080f" stroke="#12121b"></path><path d="M90 250L0 333.3L90 333.3Z" fill="#08080f" stroke="#12121b"></path><path d="M0 250L0 333.3L90 250Z" fill="#08080f" stroke="#12121b"></path><path d="M0 250L90 250L90 166.7Z" fill="#08080f" stroke="#12121b"></path><path d="M0 250L90 166.7L0 166.7Z" fill="#08080f" stroke="#12121b"></path><path d="M1710 333.3L1710 250L1620 250Z" fill="#08080f" stroke="#12121b"></path><path d="M0 166.7L90 166.7L90 83.3Z" fill="#08080f" stroke="#12121b"></path><path d="M0 333.3L0 416.7L90 416.7Z" fill="#08080f" stroke="#12121b"></path><path d="M1620 500L1710 416.7L1620 416.7Z" fill="#08080f" stroke="#12121b"></path><path d="M1710 250L1710 166.7L1620 166.7Z" fill="#08080f" stroke="#12121b"></path><path d="M0 83.3L0 166.7L90 83.3Z" fill="#08080f" stroke="#12121b"></path><path d="M90 0L0 83.3L90 83.3Z" fill="#08080f" stroke="#12121b"></path><path d="M0 416.7L0 500L90 500Z" fill="#08080f" stroke="#12121b"></path><path d="M1710 166.7L1710 83.3L1620 83.3Z" fill="#08080f" stroke="#12121b"></path><path d="M1620 500L1710 500L1710 416.7Z" fill="#08080f" stroke="#12121b"></path><path d="M90 0L0 0L0 83.3Z" fill="#08080f" stroke="#12121b"></path><path d="M1710 83.3L1710 0L1620 0Z" fill="#08080f" stroke="#12121b"></path><path d="M1710 250L1800 250L1710 166.7Z" fill="#08080f" stroke="#12121b"></path><path d="M1710 166.7L1800 166.7L1710 83.3Z" fill="#08080f" stroke="#12121b"></path><path d="M1710 83.3L1800 83.3L1710 0Z" fill="#08080f" stroke="#12121b"></path><path d="M1710 333.3L1800 333.3L1710 250Z" fill="#08080f" stroke="#12121b"></path><path d="M1710 416.7L1800 333.3L1710 333.3Z" fill="#08080f" stroke="#12121b"></path><path d="M1800 416.7L1800 333.3L1710 416.7Z" fill="#08080f" stroke="#12121b"></path><path d="M1800 333.3L1800 250L1710 250Z" fill="#08080f" stroke="#12121b"></path><path d="M1710 500L1800 416.7L1710 416.7Z" fill="#08080f" stroke="#12121b"></path><path d="M1800 250L1800 166.7L1710 166.7Z" fill="#08080f" stroke="#12121b"></path><path d="M1800 166.7L1800 83.3L1710 83.3Z" fill="#08080f" stroke="#12121b"></path><path d="M1710 500L1800 500L1800 416.7Z" fill="#08080f" stroke="#12121b"></path><path d="M1800 83.3L1800 0L1710 0Z" fill="#08080f" stroke="#12121b"></path></g></svg>