<svg id="visual" viewBox="0 0 1800 500" width="1800" height="500" xmlns="http://www.w3.org/2000/svg" xmlns:xlink="http://www.w3.org/1999/xlink" version="1.1"><rect x="0" y="0" width="1800" height="500" fill="#08080f"></rect><path d="M0 350L30 342.5C60 335 120 320 180 330.2C240 340.3 300 375.7 360 392C420 408.3 480 405.7 540 403C600 400.3 660 397.7 720 379.8C780 362 840 329 900 316C960 303 1020 310 1080 311.7C1140 313.3 1200 309.7 1260 306.7C1320 303.7 1380 301.3 1440 294.5C1500 287.7 1560 276.3 1620 267C1680 257.7 1740 250.3 1770 246.7L1800 243L1800 501L1770 501C1740 501 1680 501 1620 501C1560 501 1500 501 1440 501C1380 501 1320 501 1260 501C1200 501 1140 501 1080 501C1020 501 960 501 900 501C840 501 780 501 720 501C660 501 600 501 540 501C480 501 420 501 360 501C300 501 240 501 180 501C120 501 60 501 30 501L0 501Z" fill="#0a0a13" stroke-linecap="round" stroke-linejoin="miter"></path></svg>