<svg id="visual" viewBox="0 0 1800 1000" width="1800" height="1000" xmlns="http://www.w3.org/2000/svg" xmlns:xlink="http://www.w3.org/1999/xlink" version="1.1"><path d="M0 241L257 361L514 381L771 391L1029 421L1286 491L1543 371L1800 251L1800 0L1543 0L1286 0L1029 0L771 0L514 0L257 0L0 0Z" fill="#08080f"></path><path d="M0 421L257 471L514 681L771 601L1029 531L1286 611L1543 441L1800 391L1800 249L1543 369L1286 489L1029 419L771 389L514 379L257 359L0 239Z" fill="#0b0b14"></path><path d="M0 561L257 611L514 741L771 671L1029 681L1286 651L1543 611L1800 531L1800 389L1543 439L1286 609L1029 529L771 599L514 679L257 469L0 419Z" fill="#0e0e18"></path><path d="M0 641L257 731L514 771L771 771L1029 731L1286 801L1543 651L1800 681L1800 529L1543 609L1286 649L1029 679L771 669L514 739L257 609L0 559Z" fill="#10101c"></path><path d="M0 891L257 861L514 951L771 951L1029 881L1286 911L1543 831L1800 931L1800 679L1543 649L1286 799L1029 729L771 769L514 769L257 729L0 639Z" fill="#121220"></path><path d="M0 1001L257 1001L514 1001L771 1001L1029 1001L1286 1001L1543 1001L1800 1001L1800 929L1543 829L1286 909L1029 879L771 949L514 949L257 859L0 889Z" fill="#141424"></path></svg>